<svg version="1" xmlns="http://www.w3.org/2000/svg" width="533.333" height="533.333" viewBox="0 0 400.000000 400.000000"><path d="M241.3 6.3c-1.8 1.2-3.8 3.3-4.5 4.7-.9 2-1.2 31.1-1.3 134.5-.1 72.6-.5 133.8-1 136-.4 2.2-.9 4.4-1 5-.9 4-5.5 11.1-9.9 15.3-9 8.5-17.9 12-29.6 11.6-24.3-.8-41.7-19.6-40.6-43.8.7-14.5 8-26.4 21.1-34.1 4.8-2.9 14.4-5.5 20-5.5 9.3 0 16.9-10 13.2-17.5-.6-1.1-1.3-2.7-1.7-3.5-.4-.8-2.2-2.6-4.1-3.8-3-2.1-4.2-2.3-10.9-1.9-8.4.6-11.1 1.1-17.8 3.3-5 1.7-13 5.3-14.7 6.6-19 14.4-27 26.2-31 45.3-1.4 6.8-1.4 21.4 0 27.9 3.3 15.4 13.6 31.1 27.2 41.5 5 3.8 15.2 8.6 23.1 10.7 6.6 1.8 22.4 2.6 27.9 1.4 2.1-.5 4.9-1.1 6.3-1.3 6.5-1.2 18.1-7 24.9-12.5 13.8-11.2 21.7-24.2 24.2-40.4.9-5.3 1.2-44.2 1.2-139.3 0-122.6-.1-132.2-1.7-135.3-3.6-6.9-12.9-9.3-19.3-4.9z"/><path d="M294.3 7c-1.5.9-3.7 2.7-4.8 4-2.4 2.6-2.3-.2-2.8 170.5-.2 58.8-.6 108.1-.9 109.5-.4 1.4-.9 4.2-1.2 6.4-.9 5.7-5.4 18.5-8.3 23.6-6.7 11.6-19.8 25.3-30.3 31.7-12.6 7.7-21.3 11-36 14-5.5 1.1-21.9.9-29.3-.4-23.8-4-42.8-15.2-59.3-34.9-1.9-2.3-3.4-4.6-3.4-5.3 0-.6-.4-1.1-.9-1.1-1.5 0-9.9-18.3-12-26-4.7-17.5-4.8-29.3-.6-49.5 1.7-7.8 10.4-26.6 14.1-30.3.8-.7 1.4-1.7 1.4-2.2 0-1.6 15.7-16.7 21.5-20.7 14.8-10 31.7-15.9 49-17 5-.3 10.3-1.2 11.8-2 8.3-4.2 8.8-17.9 1-23.1-5.7-3.7-27.6-1.8-45.2 3.9-37.9 12.3-68.4 44-79 82.1-1.8 6.6-2.3 8.9-3.8 16.8-1.2 6.6-1 25.3.3 33.5 8.3 52.1 45.7 91.3 97.5 102 8.6 1.8 31.7 2.5 37.9 1.3 1.4-.3 4.5-.9 7-1.3 21.8-3.4 45.6-16.3 63.3-34.2 20.8-21.1 30.6-44.6 32.2-77.3.2-3.6.7-7.3 1-8.3.4-1 .2-1.7-.5-1.7-.6 0-.8-.5-.3-1.3 1.1-1.8 1-8.7-.2-8.7-.6 0-.7-.3 0-.8 1.4-1 1.7-3.2.4-3.2-.5 0-.7-.5-.3-1.2 1-1.5 1.3-6.8.5-6.8-.4 0-.7-.9-.7-2s.3-2 .6-2c.7 0 .4-9.9-.3-10.7-.3-.3-.2-1.6.3-2.9.7-1.7.6-2.4-.2-2.4-.9 0-.9-.3-.1-1.1.7-.7.8-2.1.3-4-.5-1.6-.5-2.9-.2-2.9.8 0 .7-9.9-.1-10.7-.3-.3-.2-1.6.3-2.9.7-1.7.6-2.4-.2-2.4-.9 0-.9-.3-.1-1.1.7-.7.8-2.1.3-4-.5-1.6-.5-2.9-.1-2.9s.7-1.8.6-4c0-2.2-.3-4-.7-4-.4 0-.4-1 .1-2.3.5-1.4.5-3 0-4-.6-.9-.6-1.7-.2-1.7.9 0 .9-9.8 0-10.7-.3-.3-.2-1.6.3-2.9.7-1.7.6-2.4-.2-2.4-.9 0-.9-.3-.1-1.1.7-.7.8-2.1.3-4-.5-1.6-.5-2.9-.2-2.9.8 0 .7-9.9-.1-10.7-.3-.3-.2-1.6.3-2.9.7-1.7.6-2.4-.2-2.4-.9 0-.9-.3-.1-1.1.7-.7.8-2.1.3-4-.5-1.6-.5-2.9-.1-2.9s.7-1.8.6-4c0-2.2-.3-4-.7-4-.4 0-.4-1 .1-2.3.5-1.4.5-3 0-4-.6-.9-.6-1.7-.2-1.7.9 0 .9-9.8 0-10.7-.3-.3-.2-1.6.3-2.9.7-1.7.6-2.4-.2-2.4-.9 0-.9-.3-.1-1.1.7-.7.8-2.1.3-4-.5-1.6-.5-2.9-.2-2.9.8 0 .7-9.9-.1-10.7-.3-.3-.2-1.6.3-2.9.7-1.7.6-2.4-.2-2.4-.9 0-.9-.3-.1-1.1.7-.7.8-2.1.3-4-.5-1.6-.5-2.9-.1-2.9s.7-1.8.6-4c0-2.2-.3-4-.7-4-.4 0-.4-1 .1-2.3.5-1.4.5-3 0-4-.6-.9-.6-1.7-.2-1.7.9 0 .9-9.8 0-10.7-.3-.3-.2-1.6.3-2.9.7-1.7.6-2.4-.2-2.4-.9 0-.9-.3-.1-1.1.7-.7.8-2.1.3-4-.5-1.6-.5-2.9-.2-2.9.8 0 .7-9.9-.1-10.7-.3-.3-.4-1-.1-1.7.7-1.9-3.8-7.9-7.1-9.5-4.3-2.1-8.9-2.1-12.2-.1z"/></svg>